<svg width="90" height="90" viewBox="0 0 90 90" fill="none" xmlns="http://www.w3.org/2000/svg">
<circle cx="45" cy="45" r="45" fill="#FFD836"/>
<path d="M49.3539 48.9586C49.4875 48.9586 49.6196 48.9301 49.7413 48.8752C52.7445 47.5244 56.3026 44.6043 56.4453 40.8206C56.4501 40.6977 56.4305 40.575 56.3876 40.4596C56.3446 40.3443 56.2793 40.2385 56.1952 40.1482C56.1112 40.058 56.0101 39.9851 55.8977 39.9338C55.7853 39.8824 55.6638 39.8536 55.5403 39.849C55.4167 39.8444 55.2934 39.864 55.1775 39.9068C55.0615 39.9496 54.9552 40.0147 54.8646 40.0984C54.7739 40.1821 54.7008 40.2828 54.6492 40.3946C54.5977 40.5064 54.5689 40.6273 54.5644 40.7502C54.461 43.4915 51.6779 45.9494 48.9656 47.1692C48.7695 47.2575 48.6097 47.4099 48.5129 47.601C48.4161 47.7922 48.3881 48.0106 48.4335 48.2198C48.4789 48.4291 48.595 48.6165 48.7625 48.7509C48.93 48.8854 49.1387 48.9586 49.3539 48.9586H49.3539Z" fill="black" fill-opacity="0.4"/>
<path d="M57.8236 56.7003C57.6233 56.7012 57.4233 56.7137 57.2246 56.7376L55.1446 50.025C57.1483 48.4976 58.7717 46.532 59.889 44.2804C61.0064 42.0288 61.5878 39.5517 61.5883 37.0407C61.5882 36.7924 61.4891 36.5543 61.3126 36.3787C61.1361 36.2032 60.8967 36.1045 60.6471 36.1045H29.5883C29.3387 36.1045 29.0993 36.2032 28.9228 36.3787C28.7463 36.5543 28.6471 36.7924 28.6471 37.0407C28.6483 37.9822 28.731 38.9218 28.8943 39.8492H23.9412C23.6916 39.8492 23.4522 39.9478 23.2757 40.1234C23.0992 40.299 23 40.5371 23 40.7854C23 41.0337 23.0992 41.2718 23.2757 41.4474C23.4522 41.6229 23.6916 41.7215 23.9412 41.7215H29.3357C30.3621 45.1231 32.4683 48.1025 35.3391 50.214L31.4975 65.8396C31.4679 65.9591 31.4622 66.0833 31.4809 66.205C31.4995 66.3267 31.5421 66.4435 31.6063 66.5488C31.6704 66.6541 31.7547 66.7458 31.8545 66.8186C31.9543 66.8914 32.0675 66.944 32.1878 66.9732C32.308 67.0025 32.4328 67.0078 32.5551 66.989C32.6774 66.9702 32.7948 66.9276 32.9006 66.8636C33.0063 66.7996 33.0983 66.7155 33.1713 66.6161C33.2443 66.5167 33.2969 66.404 33.3261 66.2844L34.1863 62.7854H52.737C52.9162 63.747 53.367 64.6379 54.0368 65.3539C54.7065 66.0699 55.5675 66.5812 56.5189 66.8281C57.4702 67.075 58.4726 67.0472 59.4087 66.7479C60.3447 66.4487 61.1757 65.8904 61.8043 65.1384C62.4329 64.3864 62.8331 63.4718 62.9581 62.5018C63.083 61.5317 62.9276 60.5463 62.5099 59.661C62.0922 58.7756 61.4296 58.0269 60.5997 57.5026C59.7697 56.9783 58.8068 56.7 57.8236 56.7003ZM30.5596 37.9769H59.6758C59.4365 41.6556 57.7987 45.1058 55.0948 47.6269C52.3909 50.1481 48.8238 51.5511 45.1177 51.5511C41.4116 51.5511 37.8444 50.1481 35.1405 47.6269C32.4367 45.1058 30.7988 41.6556 30.5596 37.9769ZM37.0116 51.2936C39.5326 52.7176 42.3877 53.4522 45.2866 53.4228C48.1856 53.3934 51.025 52.601 53.5163 51.126L55.4262 57.29C54.7318 57.6524 54.129 58.1668 53.6632 58.7943C53.1975 59.4218 52.8808 60.1462 52.737 60.913H34.6466L37.0116 51.2936ZM57.8236 65.1258C57.172 65.1258 56.5352 64.9336 55.9934 64.5736C55.4517 64.2136 55.0295 63.7018 54.7802 63.1031C54.5309 62.5044 54.4656 61.8456 54.5927 61.21C54.7198 60.5744 55.0336 59.9905 55.4943 59.5323C55.955 59.0741 56.5419 58.762 57.1809 58.6356C57.8199 58.5091 58.4822 58.574 59.0842 58.822C59.6861 59.07 60.2006 59.49 60.5625 60.0288C60.9245 60.5677 61.1177 61.2012 61.1177 61.8492C61.1167 62.7179 60.7693 63.5508 60.1518 64.165C59.5342 64.7793 58.6969 65.1248 57.8236 65.1258Z" fill="black" fill-opacity="0.4"/>
<path d="M52.8741 28.71C53.3454 30.1159 53.5177 31.106 52.9228 31.6979C52.8354 31.7849 52.766 31.8881 52.7187 32.0016C52.6713 32.1152 52.647 32.237 52.6469 32.3599C52.6469 32.4829 52.6713 32.6046 52.7186 32.7182C52.7658 32.8318 52.8352 32.935 52.9226 33.022C53.01 33.1089 53.1138 33.1779 53.228 33.2249C53.3422 33.2719 53.4646 33.2961 53.5882 33.2961C53.7118 33.2961 53.8342 33.2719 53.9484 33.2248C54.0626 33.1777 54.1663 33.1087 54.2537 33.0217C55.7909 31.4927 55.0551 29.2974 54.6599 28.1183L54.423 27.4116C53.9683 26.0617 53.7107 25.1365 54.2537 24.5962C54.4294 24.4205 54.5279 24.1827 54.5275 23.9348C54.5272 23.687 54.4281 23.4494 54.2519 23.2742C54.0757 23.0989 53.8369 23.0003 53.5877 23C53.3386 22.9997 53.0994 23.0976 52.9228 23.2724C51.5147 24.6728 52.1643 26.5997 52.6383 28.0067L52.8741 28.71Z" fill="black" fill-opacity="0.4"/>
<path d="M44.4035 28.71C44.8748 30.1159 45.0471 31.106 44.4522 31.6979C44.3648 31.7849 44.2954 31.8881 44.2481 32.0016C44.2008 32.1152 44.1764 32.237 44.1764 32.3599C44.1764 32.4829 44.2007 32.6046 44.248 32.7182C44.2953 32.8318 44.3646 32.935 44.452 33.022C44.5394 33.1089 44.6432 33.1779 44.7574 33.2249C44.8716 33.2719 44.994 33.2961 45.1176 33.2961C45.2412 33.2961 45.3636 33.2719 45.4778 33.2248C45.592 33.1777 45.6957 33.1087 45.7831 33.0217C47.3203 31.4927 46.5846 29.2974 46.1894 28.1183L45.9525 27.4116C45.4977 26.0617 45.2402 25.1365 45.7831 24.5962C45.9588 24.4205 46.0573 24.1827 46.057 23.9348C46.0566 23.687 45.9575 23.4494 45.7813 23.2742C45.6052 23.0989 45.3663 23.0003 45.1172 23C44.868 22.9997 44.6289 23.0976 44.4522 23.2724C43.0442 24.6728 43.6937 26.5997 44.1678 28.0067L44.4035 28.71Z" fill="black" fill-opacity="0.4"/>
<path d="M35.8123 28.8826C36.267 30.2324 36.5246 31.1576 35.9816 31.6979C35.8942 31.7849 35.8249 31.8881 35.7775 32.0016C35.7302 32.1152 35.7058 32.237 35.7058 32.3599C35.7058 32.4829 35.7301 32.6046 35.7774 32.7182C35.8247 32.8318 35.894 32.935 35.9814 33.022C36.0688 33.1089 36.1726 33.1779 36.2868 33.2249C36.401 33.2719 36.5234 33.2961 36.647 33.2961C36.7706 33.2961 36.893 33.2719 37.0072 33.2248C37.1214 33.1777 37.2252 33.1087 37.3125 33.0218C38.7206 31.6214 38.071 29.6944 37.597 28.2874L37.3612 27.5841C36.89 26.1783 36.7176 25.1882 37.3125 24.5962C37.4882 24.4205 37.5867 24.1827 37.5864 23.9348C37.586 23.687 37.4869 23.4494 37.3107 23.2742C37.1346 23.099 36.8957 23.0004 36.6466 23C36.3974 22.9997 36.1583 23.0977 35.9816 23.2724C34.4444 24.8015 35.1802 26.9968 35.5754 28.1759L35.8123 28.8826Z" fill="black" fill-opacity="0.4"/>
</svg>
